<svg id="Lager_1" data-name="Lager 1" xmlns="http://www.w3.org/2000/svg" xmlns:xlink="http://www.w3.org/1999/xlink" viewBox="0 0 340 200"><defs><style>.cls-1{fill:none;}.cls-2{fill:#f6c2a4;}.cls-3{fill:url(#Nytt_mönster);}</style><pattern id="Nytt_mönster" data-name="Nytt mönster" width="340" height="200" patternUnits="userSpaceOnUse" viewBox="0 0 340 200"><rect class="cls-1" width="340" height="200"/><rect class="cls-2" width="340" height="146.68"/><path class="cls-2" d="M.35,146.68c10.11-1.28,21.33,38.28,36,38.26,16,0,19.34-37.86,33.67-38.26s20.23,34.44,35.24,34.37,20.42-34.44,35.24-34.37c14,.07,18.54,30.66,33.68,32,13.79,1.25,19.18-32.6,31.32-32,11.82.55,19.88,32.71,33.86,31.54,15.43-1.29,12-30.21,28.61-31.46,16.13-1.22,23.9,29.6,41.49,29.7,12.18.07,20.08-29.49,30.17-29.7"/></pattern></defs><rect class="cls-3" width="340" height="200"/></svg>